Coordinates
version=1
nRows=8
nColumns=40
inDegrees=yes

Units are S.I. units (second, meters, Newtons, ...)
Angles are in degrees.

endheader
time	pelvis_tilt	pelvis_list	pelvis_rotation	pelvis_tx	pelvis_ty	pelvis_tz	hip_flexion_r	hip_adduction_r	hip_rotation_r	knee_angle_r	knee_angle_r_beta	ankle_angle_r	subtalar_angle_r	mtp_angle_r	hip_flexion_l	hip_adduction_l	hip_rotation_l	knee_angle_l	knee_angle_l_beta	ankle_angle_l	subtalar_angle_l	mtp_angle_l	lumbar_extension	lumbar_bending	lumbar_rotation	arm_flex_r	arm_add_r	arm_rot_r	elbow_flex_r	pro_sup_r	wrist_flex_r	wrist_dev_r	arm_flex_l	arm_add_l	arm_rot_l	elbow_flex_l	pro_sup_l	wrist_flex_l	wrist_dev_l
      0.56000000	    -12.15370733	     -4.91909953	    -11.68717559	      0.15846438	      0.88344759	      0.05904399	     27.24836876	      6.20243718	     -0.25432047	    -47.66081093	     -0.83183807	     15.51859568	    -11.11051008	    -12.99117215	     39.73565483	      6.99185320	      6.20830821	    -92.68386602	     -1.61763863	      7.51119597	     18.75132594	     19.67779019	     -3.46205257	      8.66697578	      3.99939790	      0.24637432	    -23.38833056	     -1.66737190	    113.08276457	     89.95437384	      0.00000000	      0.00000000	    -19.79711052	     69.48742445	    -29.56681969	     78.93136886	     89.95437384	      0.00000000	      0.00000000
      0.57000000	    -10.66408838	     -3.69325790	    -10.75926265	      0.20126483	      0.88986611	      0.05642687	     21.66438560	      3.38284166	     -1.03798678	    -45.48439050	     -0.79385237	     16.06881241	     -9.73897060	    -14.21533392	     41.06066306	      4.59281123	      5.73949324	    -89.60011739	     -1.56381706	      7.95074023	     18.47412154	     18.14236058	     -4.59851816	      7.00263037	      4.43450043	      2.57916176	    -24.23986139	     -0.45029281	    115.71482953	     89.95437384	      0.00000000	      0.00000000	    -23.85918599	     69.66139248	    -24.57087245	     81.43461220	     89.95437384	      0.00000000	      0.00000000
      0.58000000	     -9.58642228	     -2.85267449	     -9.59070522	      0.24442754	      0.89698823	      0.05375370	     16.23549434	      1.00579398	     -2.41710947	    -42.67439443	     -0.74480869	     14.96460090	     -8.82045818	    -13.80845181	     42.34445364	      2.72559493	      5.06781974	    -85.66620682	     -1.49515737	      8.83649665	     18.06208881	     17.22268418	     -5.27555996	      5.84314345	      5.13922121	      3.93241689	    -25.16059044	     -0.22743082	    118.53869018	     89.95437384	      0.00000000	      0.00000000	    -24.11587145	     69.98543936	    -23.76786867	     83.51499728	     89.95437384	      0.00000000	      0.00000000
      0.59000000	     -8.75662775	     -1.94994521	     -8.51787210	      0.28771101	      0.90442408	      0.05117741	     11.18963549	     -1.42342611	     -4.05624917	    -39.83077509	     -0.69517817	     13.26690427	     -5.99127577	    -13.73383205	     43.40171628	      1.01083544	      4.63629683	    -80.84427516	     -1.41099878	      9.36219863	     17.62237390	     16.02391712	     -5.71756397	      4.64596081	      5.67249800	      5.09916385	    -26.19375425	      0.25831801	    121.17144834	     89.95437384	      0.00000000	      0.00000000	    -25.14191395	     69.78102492	    -21.86236909	     85.57935941	     89.95437384	      0.00000000	      0.00000000
      0.60000000	     -8.53980439	     -0.76855237	     -7.52875244	      0.33036527	      0.91111225	      0.04893656	      7.42784899	     -4.14579095	     -6.18394239	    -37.75375423	     -0.65892732	      9.94770040	     -2.53536897	    -13.81953136	     44.77370603	     -0.80228559	      4.34955907	    -75.31454387	     -1.31448677	      9.05509874	     17.33926256	     14.36319705	     -5.52586002	      3.12968262	      6.02400579	      6.02537985	    -27.10914947	      0.90971929	    123.63954130	     89.95437384	      0.00000000	      0.00000000	    -27.24185522	     69.14180006	    -18.47869427	     87.65415187	     89.95437384	      0.00000000	      0.00000000
      0.61000000	     -8.06505465	      0.19339675	     -6.56959984	      0.37363365	      0.91884597	      0.04740599	      3.33224900	     -6.38362585	     -8.24510106	    -35.35161791	     -0.61700213	      5.30669150	      0.01067812	    -12.72261106	     45.22043586	     -2.14923564	      4.23403846	    -68.99683806	     -1.20422200	      8.47902889	     16.97392468	     13.73094960	     -5.60858600	      1.73789003	      6.57669762	      6.39746402	    -27.97090341	      1.18503599	    125.97533205	     89.95437384	      0.00000000	      0.00000000	    -27.78437429	     68.43744179	    -16.67465167	     89.47336728	     89.95437384	      0.00000000	      0.00000000
      0.62000000	     -7.57613289	      1.17060280	     -5.70476316	      0.41781639	      0.92631159	      0.04595795	     -0.58962102	     -8.66994159	    -10.88882951	    -33.02551048	     -0.57640390	     -0.26813287	      3.77392026	    -11.38411998	     45.05736772	     -3.32546769	      4.28592551	    -62.01484593	     -1.08236325	      7.22847429	     16.08372036	     12.75907424	     -5.60429577	      0.29971462	      6.79794247	      6.73037835	    -28.77070154	      2.05885493	    127.93950685	     89.95437384	      0.00000000	      0.00000000	    -29.85298002	     67.09591994	    -13.13850971	     91.39554109	     89.95437384	      0.00000000	      0.00000000
      0.63000000	     -7.03022110	      1.73619901	     -4.86551422	      0.46258936	      0.93362163	      0.04481689	     -4.50103389	    -10.17350200	    -13.65924415	    -30.34093543	     -0.52954922	     -7.75291275	      5.28463635	     -9.24237985	     44.30555341	     -4.04056841	      3.95742708	    -54.55854820	     -0.95222630	      5.57080882	     14.35085573	     12.67550937	     -5.59760556	     -0.68412576	      7.18158969	      6.54379972	    -29.47946180	      2.54238743	    129.77289382	     89.95437384	      0.00000000	      0.00000000	    -30.54460757	     65.74133553	    -11.26503284	     93.07486571	     89.95437384	      0.00000000	      0.00000000
